<svg xmlns="http://www.w3.org/2000/svg" width="200" height="140" viewBox="0 0 200 140">
  <rect width="200" height="140" rx="8" fill="#0a0e17"/>
  <!-- Header line -->
  <rect x="16" y="14" width="80" height="6" rx="2" fill="#64748b"/>
  <!-- Column headers -->
  <rect x="16" y="30" width="20" height="4" rx="1" fill="#334155"/>
  <rect x="44" y="30" width="36" height="4" rx="1" fill="#334155"/>
  <rect x="90" y="30" width="24" height="4" rx="1" fill="#334155"/>
  <rect x="124" y="30" width="40" height="4" rx="1" fill="#334155"/>
  <rect x="172" y="30" width="16" height="4" rx="1" fill="#334155"/>
  <line x1="16" y1="38" x2="184" y2="38" stroke="#1e293b" stroke-width="1"/>
  <!-- Rows -->
  <g fill="#1e293b">
    <rect x="16" y="42" width="168" height="10" rx="2" opacity="0.5"/>
    <rect x="16" y="56" width="168" height="10" rx="2" opacity="0.4"/>
    <rect x="16" y="70" width="168" height="10" rx="2" opacity="0.5"/>
    <rect x="16" y="84" width="168" height="10" rx="2" opacity="0.4"/>
    <rect x="16" y="98" width="168" height="10" rx="2" opacity="0.5"/>
    <rect x="16" y="112" width="168" height="10" rx="2" opacity="0.4"/>
  </g>
  <!-- Seat badges -->
  <rect x="90" y="43" width="22" height="8" rx="4" fill="rgba(16,185,129,0.15)"/>
  <rect x="90" y="57" width="16" height="8" rx="4" fill="rgba(59,130,246,0.15)"/>
  <rect x="90" y="71" width="16" height="8" rx="4" fill="rgba(59,130,246,0.15)"/>
  <rect x="90" y="85" width="16" height="8" rx="4" fill="rgba(59,130,246,0.15)"/>
  <rect x="90" y="99" width="16" height="8" rx="4" fill="rgba(59,130,246,0.15)"/>
  <rect x="90" y="113" width="16" height="8" rx="4" fill="rgba(59,130,246,0.15)"/>
  <!-- Stats boxes at bottom -->
  <rect x="16" y="126" width="38" height="8" rx="3" fill="rgba(255,255,255,0.04)" stroke="#334155" stroke-width="0.5"/>
  <rect x="60" y="126" width="38" height="8" rx="3" fill="rgba(255,255,255,0.04)" stroke="#334155" stroke-width="0.5"/>
  <rect x="104" y="126" width="38" height="8" rx="3" fill="rgba(255,255,255,0.04)" stroke="#334155" stroke-width="0.5"/>
  <rect x="148" y="126" width="38" height="8" rx="3" fill="rgba(255,255,255,0.04)" stroke="#334155" stroke-width="0.5"/>
</svg>
