<svg xmlns="http://www.w3.org/2000/svg" viewBox="0 0 200 140">
  <rect width="200" height="140" fill="#FAF9F6" rx="4"/>
  <g transform="translate(100,70)">
    <!-- Donut segments -->
    <path d="M0,-52 A52,52 0 0,1 45,26 L27,15.6 A31.2,31.2 0 0,0 0,-31.2 Z" fill="#1e3a5f"/>
    <path d="M45,26 A52,52 0 0,1 -26,45 L-15.6,27 A31.2,31.2 0 0,0 27,15.6 Z" fill="#2563eb"/>
    <path d="M-26,45 A52,52 0 0,1 -50,-15 L-30,-9 A31.2,31.2 0 0,0 -15.6,27 Z" fill="#3b82f6"/>
    <path d="M-50,-15 A52,52 0 0,1 -20,-48 L-12,-28.8 A31.2,31.2 0 0,0 -30,-9 Z" fill="#60a5fa"/>
    <path d="M-20,-48 A52,52 0 0,1 0,-52 L0,-31.2 A31.2,31.2 0 0,0 -12,-28.8 Z" fill="#93c5fd"/>
  </g>
</svg>
