<svg xmlns="http://www.w3.org/2000/svg" viewBox="0 0 200 140">
  <rect width="200" height="140" rx="4" fill="#0a0e17"/>
  <!-- Title -->
  <text x="15" y="16" fill="rgba(255,255,255,0.5)" font-size="8" font-family="sans-serif" font-weight="500">NYC Payroll FY2025</text>
  <!-- Grid lines -->
  <line x1="50" y1="25" x2="190" y2="25" stroke="rgba(255,255,255,0.04)" stroke-width="0.5"/>
  <line x1="50" y1="45" x2="190" y2="45" stroke="rgba(255,255,255,0.04)" stroke-width="0.5"/>
  <line x1="50" y1="65" x2="190" y2="65" stroke="rgba(255,255,255,0.04)" stroke-width="0.5"/>
  <line x1="50" y1="85" x2="190" y2="85" stroke="rgba(255,255,255,0.04)" stroke-width="0.5"/>
  <!-- Stacked horizontal bars — agency payroll breakdown -->
  <!-- Agency 1 (largest) -->
  <rect x="50" y="24" width="104" height="11" rx="1" fill="#457B9D"/>
  <rect x="154" y="24" width="16" height="11" fill="#E63946"/>
  <rect x="170" y="24" width="10" height="11" rx="1" fill="#2A9D8F"/>
  <!-- Agency 2 -->
  <rect x="50" y="38" width="68" height="11" rx="1" fill="#457B9D"/>
  <rect x="118" y="38" width="22" height="11" fill="#E63946"/>
  <rect x="140" y="38" width="6" height="11" rx="1" fill="#2A9D8F"/>
  <!-- Agency 3 -->
  <rect x="50" y="52" width="42" height="11" rx="1" fill="#457B9D"/>
  <rect x="92" y="52" width="12" height="11" fill="#E63946"/>
  <rect x="104" y="52" width="5" height="11" rx="1" fill="#2A9D8F"/>
  <!-- Agency 4 -->
  <rect x="50" y="66" width="32" height="11" rx="1" fill="#457B9D"/>
  <rect x="82" y="66" width="8" height="11" fill="#E63946"/>
  <rect x="90" y="66" width="4" height="11" rx="1" fill="#2A9D8F"/>
  <!-- Agency 5 -->
  <rect x="50" y="80" width="24" height="11" rx="1" fill="#457B9D"/>
  <rect x="74" y="80" width="6" height="11" fill="#E63946"/>
  <rect x="80" y="80" width="3" height="11" rx="1" fill="#2A9D8F"/>
  <!-- Agency 6 -->
  <rect x="50" y="94" width="18" height="11" rx="1" fill="#457B9D"/>
  <rect x="68" y="94" width="5" height="11" fill="#E63946"/>
  <rect x="73" y="94" width="2" height="11" rx="1" fill="#2A9D8F"/>
  <!-- Agency 7 -->
  <rect x="50" y="108" width="14" height="11" rx="1" fill="#457B9D"/>
  <rect x="64" y="108" width="3" height="11" fill="#E63946"/>
  <rect x="67" y="108" width="2" height="11" rx="1" fill="#2A9D8F"/>
  <!-- Y-axis labels (agency name placeholders) -->
  <rect x="6" y="27" width="38" height="5" rx="1" fill="rgba(255,255,255,0.1)"/>
  <rect x="10" y="41" width="34" height="5" rx="1" fill="rgba(255,255,255,0.1)"/>
  <rect x="14" y="55" width="30" height="5" rx="1" fill="rgba(255,255,255,0.1)"/>
  <rect x="16" y="69" width="28" height="5" rx="1" fill="rgba(255,255,255,0.1)"/>
  <rect x="12" y="83" width="32" height="5" rx="1" fill="rgba(255,255,255,0.1)"/>
  <rect x="18" y="97" width="26" height="5" rx="1" fill="rgba(255,255,255,0.1)"/>
  <rect x="20" y="111" width="24" height="5" rx="1" fill="rgba(255,255,255,0.1)"/>
  <!-- Legend -->
  <circle cx="70" cy="130" r="3" fill="#457B9D"/>
  <text x="76" y="132" fill="rgba(255,255,255,0.35)" font-size="6" font-family="sans-serif">Regular</text>
  <circle cx="108" cy="130" r="3" fill="#E63946"/>
  <text x="114" y="132" fill="rgba(255,255,255,0.35)" font-size="6" font-family="sans-serif">Overtime</text>
  <circle cx="148" cy="130" r="3" fill="#2A9D8F"/>
  <text x="154" y="132" fill="rgba(255,255,255,0.35)" font-size="6" font-family="sans-serif">Other</text>
  <!-- Dollar amount hint -->
  <text x="190" y="16" fill="rgba(255,255,255,0.25)" font-size="6" font-family="monospace" text-anchor="end">$34.6B</text>
</svg>
