<svg xmlns="http://www.w3.org/2000/svg" width="200" height="140" viewBox="0 0 200 140">
  <rect width="200" height="140" fill="#87CEEB"/>
  <rect y="70" width="200" height="70" fill="#6B9B37"/>
  <!-- House (bottom-left) -->
  <polygon points="30,55 50,40 70,55" fill="#C41E3A"/>
  <rect x="35" y="55" width="30" height="25" fill="#FFF5D4" stroke="#C4A35A" stroke-width="1"/>
  <rect x="39" y="59" width="6" height="6" fill="#87CEEB"/>
  <rect x="55" y="59" width="6" height="6" fill="#87CEEB"/>
  <rect x="47" y="68" width="6" height="12" fill="#8B4513"/>
  <!-- SEQRA monster (top-right) -->
  <rect x="125" y="20" width="50" height="42" fill="#F5F5F0" stroke="#AAA" stroke-width="1"/>
  <rect x="127" y="22" width="46" height="38" fill="#F5F5F0"/>
  <rect x="122" y="30" width="56" height="5" fill="#CC0000" opacity="0.7"/>
  <rect x="122" y="48" width="56" height="5" fill="#CC0000" opacity="0.7"/>
  <rect x="133" y="34" width="6" height="6" fill="#FF0000"/>
  <rect x="153" y="34" width="6" height="6" fill="#FF0000"/>
  <line x1="130" y1="32" x2="140" y2="35" stroke="#990000" stroke-width="2"/>
  <line x1="152" y1="35" x2="162" y2="32" stroke="#990000" stroke-width="2"/>
  <!-- HP bars -->
  <rect x="8" y="8" width="60" height="14" rx="3" fill="#2D3436"/>
  <rect x="10" y="10" width="35" height="10" rx="2" fill="#4CAF50"/>
  <rect x="130" y="90" width="60" height="14" rx="3" fill="#2D3436"/>
  <rect x="132" y="92" width="35" height="10" rx="2" fill="#F44336"/>
  <!-- Text box -->
  <rect x="8" y="110" width="184" height="24" rx="3" fill="#F8F8F0" stroke="#333" stroke-width="1.5"/>
  <text x="16" y="126" font-family="monospace" font-size="9" font-weight="bold" fill="#222">FIGHT!</text>
</svg>
